# AST/ASF file generated using VICON BodyLanguage
# -----------------------------------------------
:version 1.10
:name VICON
:units
  mass 1.0
  length 0.45
  angle deg
:documentation
   .ast/.asf automatically generated from VICON data using
   VICON BodyBuilder and BodyLanguage model FoxedUp or BRILLIANT.MOD
:root
   order TX TY TZ RX RY RZ
   axis XYZ
   position 0 0 0  
   orientation 0 0 0 
:bonedata
  begin
     id 1 
     name lhipjoint
     direction 0.602128 -0.715006 0.355257 
     length 2.21237 
     axis 0 0 0  XYZ
  end
  begin
     id 2 
     name lfemur
     direction 0.34202 -0.939693 0  
     length 6.71649  
     axis 0 0 20  XYZ
    dof rx ry rz
    limits (-160.0 20.0)
           (-70.0 70.0)
           (-60.0 70.0)
  end
  begin
     id 3 
     name ltibia
     direction 0.34202 -0.939693 0   
     length 6.97123   
     axis 0 0 20   XYZ
    dof rx
    limits (-10.0 170.0)
  end
  begin
     id 4 
     name lfoot
     direction 0.0655697 -0.180151 0.981451   
     length 1.80924   
     axis -90 7.62852e-016 20   XYZ
    dof rx rz
    limits (-45.0 90.0)
           (-70.0 20.0)
  end
  begin
     id 5 
     name ltoes
     direction 1.53545e-011 -4.21827e-011 1   
     length 0.916331   
     axis -90 7.62852e-016 20   XYZ
    dof rx
    limits (-90.0 20.0)
  end
  begin
     id 6 
     name rhipjoint
     direction -0.625414 -0.698792 0.347201   
     length 2.2637  
     axis 0 0 0  XYZ 
  end
  begin
     id 7 
     name rfemur
     direction -0.34202 -0.939693 0   
     length 7.07595   
     axis 0 0 -20   XYZ
    dof rx ry rz
    limits (-160.0 20.0)
           (-70.0 70.0)
           (-70.0 60.0)
  end
  begin
     id 8 
     name rtibia
     direction -0.34202 -0.939693 0   
     length 7.22924   
     axis 0 0 -20   XYZ
    dof rx
    limits (-10.0 170.0)
 end
 begin
     id 9 
     name rfoot
     direction -0.0766747 -0.210662 0.974547   
     length 1.98482  
     axis -90 -7.62852e-016 -20   XYZ
    dof rx rz
    limits (-45.0 90.0)
           (-20.0 70.0)
  end
  begin
     id 10 
     name rtoes
     direction -1.53532e-011 -4.21867e-011 1   
     length 0.999842   
     axis -90 -7.62852e-016 -20   XYZ
    dof rx
    limits (-90.0 20.0)
  end
  begin
     id 11 
     name lowerback
     direction -0.0224668 0.997354 -0.0691422   
     length 2.09945   
     axis 0 0 0   XYZ
    dof rx ry rz
    limits (-20.0 45.0)
           (-30.0 30.0)
           (-30.0 30.0)
  end
  begin
     id 12 
     name upperback
     direction 0.0134698 0.998451 -0.0539888   
     length 2.09758   
     axis 0 0 0   XYZ
    dof rx ry rz
    limits (-20.0 45.0)
           (-30.0 30.0)
           (-30.0 30.0)
  end
  begin
     id 13 
     name thorax
     direction 0.0241905 0.99948 -0.0213333   
     length 2.10428   
     axis 0 0 0   XYZ
    dof rx ry rz
    limits (-20.0 45.0)
           (-30.0 30.0)
           (-30.0 30.0)
  end
  begin
     id 14 
     name lowerneck
     direction -0.00866847 0.995978 0.0891737   
     length 1.3959   
     axis 0 0 0   XYZ
    dof rx ry rz
    limits (-20.0 45.0)
           (-30.0 30.0)
           (-30.0 30.0)
  end
  begin
     id 15 
     name upperneck
     direction 0.0680679 0.992203 0.104404   
     length 1.39452   
     axis 0 0 0   XYZ
    dof rx ry rz
    limits (-20.0 45.0)
           (-30.0 30.0)
           (-30.0 30.0)
  end
  begin
     id 16
     name head
     direction 0.0242216 0.999358 0.0264054  
     length 1.40433  
     axis 0 0 0   XYZ
    dof rx ry rz
    limits (-20.0 45.0)
           (-30.0 30.0)
           (-30.0 30.0)
  end
  begin
     id 17 
     name lclavicle
     direction 0.929368 0.362991 -0.0671771  
     length 3.04887  
     axis 0 0 0   XYZ
    dof ry rz
    limits (-20.0 10.0)
           (0.0 20.0)
  end
  begin
     id 18 
     name lhumerus
     direction 1 -4.48967e-011 -7.13741e-028   
     length 4.77195   
     axis -180 -30 -90   XYZ
    dof rx ry rz
    limits (-60.0 90.0)
           (-90.0 90.0)
           (-90.0 90.0)
  end
  begin
     id 19
     name lradius
     direction 1 -4.48977e-011 3.60404e-027   
     length 2.98444   
     axis -180 -30 -90   XYZ
    dof rx
    limits (-10.0 170.0)
  end
  begin
     id 20
     name lwrist
     direction 1 -4.48997e-011 7.54877e-027   
     length 1.49222   
     axis -7.18178e-015 90 90   XYZ
    dof ry
    limits (-180.0 0.0)
 end
  begin
     id 21 
     name lhand
     direction 1 -4.489e-011 1.51105e-026   
     length 0.992285   
     axis -9.63605e-015 90 90   XYZ
    dof rx rz
    limits (-90.0 90.0)
           (-45.0 45.0)
  end
  begin
     id 22 
     name lfingers
     direction 1 -4.48998e-011 3.01948e-026   
     length 0.800006   
     axis -1.92718e-014 90 90   XYZ
    dof rx
    limits (0.0 90.0)
  end
  begin
     id 23
     name lthumb
     direction 0.707107 -6.34881e-011 0.707107   
     length 1.14865   
     axis -90 45 -3.53137e-014   XYZ
    dof rx rz
    limits (-45.0 45.0)
           (-45.0 45.0)
  end
  begin
     id 24 
     name rclavicle
     direction -0.945672 0.324529 0.0196374   
     length 3.4236  
     axis 0 0 0   XYZ 
    dof ry rz
    limits (-10.0 20.0)
           (-20.0 0.0)
  end
  begin
     id 25 
     name rhumerus
     direction -1 -4.4896e-011 1.02757e-029  
     length 4.62052   
     axis -180 30 90   XYZ
    dof rx ry rz
    limits (-90.0 60.0)
           (-90.0 90.0)
           (-90.0 90.0)
  end
  begin
     id 26 
     name rradius
     direction -1 -4.48982e-011 3.85962e-027   
     length 2.95332   
     axis -180 30 90   XYZ
    dof rx
    limits (-10.0 170.0)
  end
  begin
     id 27 
     name rwrist
     direction -1 -4.48961e-011 7.55118e-027   
     length 1.47666   
     axis -7.18178e-015 -90 -90   XYZ
    dof ry
    limits (-180.0 0.0)
  end
  begin
     id 28
     name rhand
     direction -1 -4.48984e-011 1.50994e-026   
     length 0.990956   
     axis -9.63605e-015 -90 -90   XYZ
    dof rx rz
    limits (-90.0 90.0)
           (-45.0 45.0)
  end
  begin
     id 29
     name rfingers
     direction -1 -4.4892e-011 3.02158e-026   
     length 0.798934   
     axis -1.92718e-014 -90 -90   XYZ
    dof rx
    limits (0.0 90.0)
  end
  begin
     id 30
     name rthumb
     direction -0.707107 -6.34916e-011 0.707107   
     length 1.14711   
     axis -90 -45 3.53137e-014   XYZ
    dof rx rz
    limits (-45.0 45.0)
           (-45.0 45.0)
  end
:hierarchy
  begin
    root lhipjoint rhipjoint lowerback
    lhipjoint lfemur
    lfemur ltibia
    ltibia lfoot
    lfoot ltoes
    rhipjoint rfemur
    rfemur rtibia
    rtibia rfoot
    rfoot rtoes
    lowerback upperback
    upperback thorax
    thorax lowerneck lclavicle rclavicle
    lowerneck upperneck
    upperneck head
    lclavicle lhumerus
    lhumerus lradius
    lradius lwrist
    lwrist lhand lthumb
    lhand lfingers
    rclavicle rhumerus
    rhumerus rradius
    rradius rwrist
    rwrist rhand rthumb
    rhand rfingers
  end

#!OML:ASF H:\ManfredObstacles\Project 1\Capture day 1\Session 1\Male.ASF
:FULLY-SPECIFIED
:DEGREES
415
root -2.35038 8.12173 11.8745 -109.547 -2.158 -189.331
lowerback 17.8924 -1.20644 -2.78845
upperback 5.25438 -2.93928 -3.07138
thorax -4.41403 -1.6941 -1.03043
lowerneck 2.79423 -1.63454 1.05118
upperneck -30.5257 -1.06997 13.2633
head -10.075 -3.56611 4.95517
rclavicle 2.26615e-014 -1.43995e-014
rhumerus 30.8031 2.28944 -78.7601
rradius 59.4162
rwrist 31.2515
rhand -51.5438 3.49179
rfingers 7.12502
rthumb -24.0702 -25.0186
lclavicle 2.26615e-014 -1.43995e-014
lhumerus 32.7707 -21.2059 61.0384
lradius 71.2971
lwrist -28.6285
lhand -54.0229 -3.06875
lfingers 7.12502
lthumb -26.4452 25.1063
rfemur -29.0671 5.16242 14.7449
rtibia 62.3778
rfoot 164.568 -184.985
rtoes -46.4918
lfemur -86.384 -2.83699 -19.0392
ltibia 126.694
lfoot 13.6899 -17.5773
ltoes -27.0801
416
root -2.38804 8.19428 11.7434 -108.699 -1.66483 -188.606
lowerback 17.3391 -1.17851 -3.03108
upperback 4.90117 -2.8466 -2.73525
thorax -4.46666 -1.62217 -0.569054
lowerneck 2.64233 -1.41324 0.651055
upperneck -30.5562 -0.890853 13.1256
head -10.0616 -3.44641 4.96238
rclavicle 5.60573e-014 6.54747e-015
rhumerus 30.6324 3.48364 -78.6282
rradius 58.6165
rwrist 31.7806
rhand -52.3926 3.97381
rfingers 7.12502
rthumb -24.8838 -24.4266
lclavicle 5.60573e-014 6.54747e-015
lhumerus 36.1103 -19.0178 61.2406
lradius 69.4872
lwrist -28.6002
lhand -52.8678 -0.359062
lfingers 7.12502
lthumb -25.3391 27.9776
rfemur -30.8649 4.70395 14.2692
rtibia 62.7714
rfoot 172.553 -180.358
rtoes -19.1068
lfemur -86.1876 -2.40328 -19.0303
ltibia 125.35
lfoot 10.8414 -18.3844
ltoes -27.4065
417
root -2.4338 8.26497 11.598 -108.662 -1.17431 -187.66
lowerback 17.6036 -1.02265 -3.12259
upperback 4.73859 -2.6354 -2.44315
thorax -4.76347 -1.50392 -0.241329
lowerneck 2.40291 -1.2811 0.36954
upperneck -30.3667 -0.842028 12.8835
head -9.94234 -3.35513 4.8975
rclavicle 2.38542e-015 8.24956e-015
rhumerus 30.3897 4.52152 -78.545
rradius 57.8433
rwrist 32.0356
rhand -53.0812 4.99089
rfingers 7.12502
rthumb -25.5435 -23.3166
lclavicle 2.38542e-015 8.24956e-015
lhumerus 39.5498 -16.8914 61.4984
lradius 66.9947
lwrist -27.8867
lhand -51.4456 1.09898
lfingers 7.12502
lthumb -23.976 29.6218
rfemur -31.8538 4.31735 13.9602
rtibia 63.3546
rfoot 180.858 -178.273
rtoes 16.6408
lfemur -84.7775 -1.91097 -19.1303
ltibia 123.58
lfoot 7.88461 -18.3815
ltoes -32.0124
418
root -2.48636 8.33826 11.4402 -109.146 -0.885918 -186.742
lowerback 18.3837 -0.92007 -2.96633
upperback 4.75067 -2.49529 -2.12288
thorax -5.15838 -1.43209 0.00325275
lowerneck 2.02219 -1.14243 -0.00675689
upperneck -30.0466 -0.789742 12.7106
head -9.74585 -3.24875 4.86144
rclavicle 3.97569e-016 2.83672e-014
rhumerus 30.3716 5.661 -78.377
rradius 57.0328
rwrist 31.9092
rhand -53.5065 6.06592
rfingers 7.12502
rthumb -25.9508 -22.1825
lclavicle 3.97569e-016 2.83672e-014
lhumerus 42.8716 -14.648 61.9124
lradius 63.9588
lwrist -27.2273
lhand -49.6491 1.60917
lfingers 7.12502
lthumb -22.2523 30.3481
rfemur -32.3236 3.87401 13.9408
rtibia 64.242
rfoot 184.348 -178.055
rtoes 18.7004
lfemur -82.5692 -1.65655 -19.15
ltibia 121.385
lfoot 6.55139 -18.3669
ltoes -29.5865
419
root -2.53866 8.41184 11.2796 -110.032 -0.663107 -185.879
lowerback 19.6099 -0.833529 -2.82176
upperback 4.89681 -2.41478 -1.75464
thorax -5.64064 -1.39944 0.329666
lowerneck 1.70609 -0.933601 -0.553767
upperneck -29.8808 -0.633328 12.6297
head -9.62556 -3.1094 4.89878
rclavicle -1.19271e-015 -1.41463e-014
rhumerus 30.6152 6.95891 -77.9822
rradius 56.1956
rwrist 31.7842
rhand -53.8667 6.54056
rfingers 7.12502
rthumb -26.2957 -21.6569
lclavicle -1.19271e-015 -1.41463e-014
lhumerus 46.1287 -12.2914 62.3404
lradius 60.6345
lwrist -26.595
lhand -47.4175 1.77381
lfingers 7.12502
lthumb -20.1086 30.7532
rfemur -32.5003 3.46315 14.0483
rtibia 65.4337
rfoot 187.47 -177.9
rtoes 23.0192
lfemur -79.8253 -1.52143 -19.2422
ltibia 118.883
lfoot 4.69379 -18.6959
ltoes -28.7519
420
root -2.5782 8.49426 11.1181 -110.159 -0.290753 -185.093
lowerback 20.0541 -0.758329 -3.05418
upperback 4.86559 -2.35508 -1.35725
thorax -5.88272 -1.36254 0.88588
lowerneck 1.58889 -0.650804 -1.1795
upperneck -29.9504 -0.363425 12.5657
head -9.64093 -2.93957 4.97423
rclavicle 4.07509e-015 1.09332e-015
rhumerus 30.9937 8.4132 -77.3027
rradius 55.223
rwrist 31.8129
rhand -54.4457 6.5494
rfingers 7.12502
rthumb -26.8498 -21.5642
lclavicle 4.07509e-015 1.09332e-015
lhumerus 49.0679 -9.93787 62.7157
lradius 57.4031
lwrist -26.1989
lhand -45.0682 2.30084
lfingers 7.12502
lthumb -17.8493 31.5017
rfemur -33.8145 3.0385 14.0327
rtibia 67.0878
rfoot 187.828 -177.795
rtoes 22.3552
lfemur -78.035 -1.30491 -19.5121
ltibia 116.185
lfoot 3.15294 -18.8093
ltoes -29.248
421
root -2.60902 8.5694 10.9644 -110.988 -0.151164 -184.138
lowerback 21.3896 -0.624905 -3.04932
upperback 4.95258 -2.24072 -0.949773
thorax -6.4758 -1.30887 1.33311
lowerneck 1.5392 -0.391987 -1.70987
upperneck -29.9792 -0.103865 12.502
head -9.65732 -2.7767 5.03183
rclavicle 1.55052e-014 -6.4605e-015
rhumerus 31.301 9.86485 -76.6451
rradius 54.1647
rwrist 31.8954
rhand -55.3094 6.80468
rfingers 7.12502
rthumb -27.676 -21.1791
lclavicle 1.55052e-014 -6.4605e-015
lhumerus 51.6165 -7.81953 62.9829
lradius 54.3973
lwrist -26.0834
lhand -43.3992 2.63192
lfingers 7.12502
lthumb -16.2428 31.9715
rfemur -34.5892 2.84645 14.4492
rtibia 69.2166
rfoot 186.061 -176.659
rtoes 17.2092
lfemur -75.4559 -0.70361 -19.5262
ltibia 113.729
lfoot 3.52737 -18.309
ltoes -31.2871
422
root -2.63656 8.63834 10.8173 -111.622 -0.10348 -183.065
lowerback 22.4585 -0.511977 -2.90083
upperback 5.03724 -2.10144 -0.54495
thorax -6.93508 -1.2459 1.68217
lowerneck 1.33438 -3.56654 -2.34301
upperneck -29.08 0.600782 14.0537
head -9.30271 0.613533 5.08246
rclavicle -1.43125e-014 -9.62863e-016
rhumerus 31.5704 11.2687 -76.191
rradius 53.1305
rwrist 32.2411
rhand -56.2619 7.42906
rfingers 7.12502
rthumb -28.5865 -20.405
lclavicle -1.43125e-014 -9.62863e-016
lhumerus 53.9798 -5.88883 62.85
lradius 51.5736
lwrist -25.7353
lhand -42.3736 2.78325
lfingers 7.12502
lthumb -15.255 32.2007
rfemur -35.9223 2.79362 15.0339
rtibia 71.8036
rfoot 183.67 -175.153
rtoes 15.4082
lfemur -73.0914 0.215091 -19.3984
ltibia 111.672
lfoot 3.6832 -17.8225
ltoes -31.0242
423
root -2.65792 8.69936 10.6965 -111.383 0.141896 -182.14
lowerback 22.5044 -0.427579 -3.01212
upperback 4.97687 -1.98289 -0.212983
thorax -7.01372 -1.17968 2.07586
lowerneck 1.05319 -3.38257 -2.8498
upperneck -29.0249 0.802627 14.0324
head -9.24036 0.774272 5.1453
rclavicle 6.75868e-015 -4.41053e-016
rhumerus 31.8594 12.503 -75.9293
rradius 52.0125
rwrist 32.8995
rhand -56.8267 7.77219
rfingers 7.12502
rthumb -29.126 -19.9698
lclavicle 6.75868e-015 -4.41053e-016
lhumerus 56.0372 -4.19504 62.3974
lradius 49.1372
lwrist -25.2256
lhand -41.6387 3.12779
lfingers 7.12502
lthumb -14.547 32.5977
rfemur -38.703 2.69678 15.3592
rtibia 75.0095
rfoot 180.601 -174.487
rtoes 9.35228
lfemur -71.9499 1.18631 -19.5207
ltibia 110.031
lfoot 3.26935 -17.4506
ltoes -30.0473
